<svg xmlns="http://www.w3.org/2000/svg" width="512" height="512" viewBox="0 0 512 512">
  <metadata><?xpacket begin="﻿" id="W5M0MpCehiHzreSzNTczkc9d"?>
<x:xmpmeta xmlns:x="adobe:ns:meta/" x:xmptk="Adobe XMP Core 5.6-c138 79.159824, 2016/09/14-01:09:01        ">
   <rdf:RDF xmlns:rdf="http://www.w3.org/1999/02/22-rdf-syntax-ns#">
      <rdf:Description rdf:about=""/>
   </rdf:RDF>
</x:xmpmeta>
                                                                                                    
                                                                                                    
                                                                                                    
                                                                                                    
                                                                                                    
                                                                                                    
                                                                                                    
                                                                                                    
                                                                                                    
                                                                                                    
                                                                                                    
                                                                                                    
                                                                                                    
                                                                                                    
                                                                                                    
                                                                                                    
                                                                                                    
                                                                                                    
                                                                                                    
                                                                                                    
                           
<?xpacket end="w"?></metadata>
<defs>
    <style>
      .cls-1 {
        fill: #fff;
        fill-rule: evenodd;
      }
    </style>
  </defs>
  <path id="Account_Setting" data-name="Account Setting" class="cls-1" d="M256,183.99A58.008,58.008,0,1,0,313.89,242,58.007,58.007,0,0,0,256,183.99Zm234.905,29.2-38.448-6.26a201.271,201.271,0,0,0-22.585-54.538l22.105-31.029a14.516,14.516,0,0,0-1.541-18.679L409.5,61.672a14.4,14.4,0,0,0-18.642-1.544L359.9,82.277a200.424,200.424,0,0,0-54.429-22.631l-6.247-38.525A14.472,14.472,0,0,0,284.945,9H227.053a14.474,14.474,0,0,0-14.275,12.123l-6.247,38.525A200.437,200.437,0,0,0,152.1,82.278L121.135,60.129a14.392,14.392,0,0,0-18.642,1.544L61.562,102.686a14.516,14.516,0,0,0-1.541,18.679l22.1,31.029a201.272,201.272,0,0,0-22.585,54.538l-38.448,6.26A14.486,14.486,0,0,0,9,227.5V285.5a14.486,14.486,0,0,0,12.1,14.3l38.448,6.26a201.288,201.288,0,0,0,22.585,54.538l-22.1,31.029a14.515,14.515,0,0,0,1.541,18.679l40.931,41.014a14.5,14.5,0,0,0,18.642,1.544L152.1,430.723a200.425,200.425,0,0,0,54.429,22.63l6.247,38.525A14.472,14.472,0,0,0,227.053,504h57.892a14.474,14.474,0,0,0,14.275-12.123l6.247-38.525a200.444,200.444,0,0,0,54.429-22.63l30.967,22.149a14.5,14.5,0,0,0,18.642-1.544l40.931-41.014a14.518,14.518,0,0,0,1.541-18.679l-22.1-31.029a201.252,201.252,0,0,0,22.585-54.538l38.448-6.26A14.485,14.485,0,0,0,503,285.5V227.5A14.487,14.487,0,0,0,490.9,213.192ZM256,416.021c-87.784,0-159.2-71.561-159.2-159.521S168.215,96.979,256,96.979,415.2,168.54,415.2,256.5,343.783,416.021,256,416.021Zm66.855-119.175C306.917,316.312,283.031,329.01,256,329.01s-50.918-12.7-66.856-32.164a102.324,102.324,0,0,0-29.576,46.6c23.859,26.546,58.054,43.575,96.432,43.575s72.573-17.029,96.431-43.575A102.315,102.315,0,0,0,322.854,296.846Z"/>
</svg>
