<?xml version="1.0" encoding="iso-8859-1"?>
<!-- Generator: Adobe Illustrator 19.0.0, SVG Export Plug-In . SVG Version: 6.00 Build 0)  -->
<svg xmlns="http://www.w3.org/2000/svg" xmlns:xlink="http://www.w3.org/1999/xlink" version="1.1" id="Capa_1" x="0px" y="0px" viewBox="0 0 512 512" style="enable-background:new 0 0 512 512;" xml:space="preserve" width="512px" height="512px">
<g>
	<g>
		<path d="M256,0C114.841,0,0,114.847,0,256s114.841,256,256,256s256-114.841,256-256S397.159,0,256,0z M256,475.515    c-121.044,0-219.515-98.472-219.515-219.515S134.956,36.485,256,36.485S475.515,134.956,475.515,256S377.044,475.515,256,475.515z    " fill="#FFFFFF"/>
	</g>
</g>
<g>
	<g>
		<path d="M256,275.452c-36.211,0-65.672,29.461-65.672,65.672c0,36.217,29.461,65.678,65.672,65.678    c36.217,0,65.672-29.455,65.672-65.678C321.672,304.914,292.217,275.452,256,275.452z M256,370.324    c-16.096,0-29.188-13.098-29.188-29.194s13.092-29.188,29.188-29.188c16.096,0,29.188,13.092,29.188,29.188    C285.188,357.232,272.096,370.324,256,370.324z" fill="#FFFFFF"/>
	</g>
</g>
<g>
	<g>
		<path d="M256,156.884c-10.076,0-18.242,8.167-18.242,18.242v118.575c0,10.076,8.166,18.242,18.242,18.242    s18.242-8.166,18.242-18.242V175.126C274.242,165.05,266.076,156.884,256,156.884z" fill="#FFFFFF"/>
	</g>
</g>
<g>
	<g>
		<path d="M256,0.608c-10.076,0-18.242,8.166-18.242,18.242v47.43c0,10.076,8.166,18.242,18.242,18.242s18.242-8.166,18.242-18.242    V18.85C274.242,8.775,266.076,0.608,256,0.608z" fill="#FFFFFF"/>
	</g>
</g>
<g>
	<g>
		<path d="M493.15,237.758h-47.43c-10.076,0-18.242,8.166-18.242,18.242s8.167,18.242,18.242,18.242h47.43    c10.076,0,18.242-8.167,18.242-18.242S503.225,237.758,493.15,237.758z" fill="#FFFFFF"/>
	</g>
</g>
<g>
	<g>
		<path d="M66.28,237.758H18.85c-10.076,0-18.242,8.166-18.242,18.242s8.166,18.242,18.242,18.242h47.43    c10.076,0,18.242-8.167,18.242-18.242S76.356,237.758,66.28,237.758z" fill="#FFFFFF"/>
	</g>
</g>
<g>
	<g>
		<path d="M436.726,75.274c-7.127-7.127-18.668-7.127-25.795,0l-33.444,33.444c-7.127,7.121-7.127,18.674,0,25.795    c3.563,3.563,8.227,5.345,12.897,5.345s9.334-1.782,12.897-5.345l33.444-33.444C443.853,93.948,443.853,82.394,436.726,75.274z" fill="#FFFFFF"/>
	</g>
</g>
<g>
	<g>
		<path d="M134.513,108.718l-33.444-33.444c-7.121-7.127-18.674-7.127-25.795,0c-7.127,7.121-7.127,18.674,0,25.795l33.444,33.444    c3.557,3.563,8.227,5.345,12.897,5.345c4.67,0,9.34-1.782,12.897-5.345C141.639,127.392,141.639,115.839,134.513,108.718z" fill="#FFFFFF"/>
	</g>
</g>
<g>
	<g>
		<rect x="304.646" y="328.969" width="173.302" height="36.485" fill="#FFFFFF"/>
	</g>
</g>
<g>
	<g>
		<rect x="36.485" y="328.969" width="172.086" height="36.485" fill="#FFFFFF"/>
	</g>
</g>
<g>
</g>
<g>
</g>
<g>
</g>
<g>
</g>
<g>
</g>
<g>
</g>
<g>
</g>
<g>
</g>
<g>
</g>
<g>
</g>
<g>
</g>
<g>
</g>
<g>
</g>
<g>
</g>
<g>
</g>
</svg>
