<svg xmlns="http://www.w3.org/2000/svg" width="512" height="512" viewBox="0 0 512 512">
  <metadata><?xpacket begin="﻿" id="W5M0MpCehiHzreSzNTczkc9d"?>
<x:xmpmeta xmlns:x="adobe:ns:meta/" x:xmptk="Adobe XMP Core 5.6-c142 79.160924, 2017/07/13-01:06:39        ">
   <rdf:RDF xmlns:rdf="http://www.w3.org/1999/02/22-rdf-syntax-ns#">
      <rdf:Description rdf:about=""/>
   </rdf:RDF>
</x:xmpmeta>
                                                                                                    
                                                                                                    
                                                                                                    
                                                                                                    
                                                                                                    
                                                                                                    
                                                                                                    
                                                                                                    
                                                                                                    
                                                                                                    
                                                                                                    
                                                                                                    
                                                                                                    
                                                                                                    
                                                                                                    
                                                                                                    
                                                                                                    
                                                                                                    
                                                                                                    
                                                                                                    
                           
<?xpacket end="w"?></metadata>
<defs>
    <style>
      .cls-1 {
        fill: #fff;
        fill-rule: evenodd;
      }
    </style>
  </defs>
  <path id="Forma_1" data-name="Forma 1" class="cls-1" d="M256.535,160.7a95.658,95.658,0,0,0-63.866,167v-9.835c0-16.23,14.106-29.433,31.438-29.433h64.846c17.34,0,31.446,13.2,31.446,29.433V327.7A95.658,95.658,0,0,0,256.535,160.7Zm0,103.78a39.916,39.916,0,1,1,39.916-39.916A39.962,39.962,0,0,1,256.535,264.482ZM288.954,304.4H224.107c-8.534,0-15.472,6.044-15.472,13.468v21.475c0.128,0.072.248,0.151,0.375,0.223a96.66,96.66,0,0,0,95.048,0c0.127-.072.247-0.151,0.375-0.223V317.866C304.434,310.442,297.488,304.4,288.954,304.4Zm-32.419-103.78a23.95,23.95,0,1,1-23.95,23.949A23.949,23.949,0,0,1,256.535,200.618ZM493.323,218.58a8.112,8.112,0,0,0-6.275-1.932l-40.762,5.1a10.5,10.5,0,0,1-11.4-8.135,182.1,182.1,0,0,0-21.706-52.568,10.458,10.458,0,0,1,2.339-13.739l29.521-22.96a7.988,7.988,0,0,0,.743-11.951l-45.16-45.161a8.267,8.267,0,0,0-6.139-2.323,8.013,8.013,0,0,0-5.812,3.066L365.721,97.5a10.457,10.457,0,0,1-13.747,2.347,182.114,182.114,0,0,0-52.553-21.706,10.5,10.5,0,0,1-8.134-11.408l5.093-40.761A7.987,7.987,0,0,0,288.452,17H224.587a7.985,7.985,0,0,0-7.928,8.973l5.1,40.762a10.5,10.5,0,0,1-8.127,11.408,181.982,181.982,0,0,0-52.56,21.706A10.45,10.45,0,0,1,147.334,97.5l-22.96-29.521a7.988,7.988,0,0,0-11.95-.743L67.263,112.4a7.988,7.988,0,0,0,.743,11.951l29.521,22.96a10.448,10.448,0,0,1,2.339,13.739A182.122,182.122,0,0,0,78.16,213.615a10.468,10.468,0,0,1-11.4,8.135l-40.77-5.1a8.119,8.119,0,0,0-6.275,1.932A7.947,7.947,0,0,0,17,224.567v63.866a7.974,7.974,0,0,0,8.973,7.919l40.762-5.1a10.439,10.439,0,0,1,11.408,8.135,182.125,182.125,0,0,0,21.706,52.568,10.458,10.458,0,0,1-2.339,13.739l-29.522,22.96a7.988,7.988,0,0,0-.743,11.951l45.161,45.161a7.99,7.99,0,0,0,11.95-.743l22.96-29.522a10.477,10.477,0,0,1,13.746-2.347,182.115,182.115,0,0,0,52.554,21.706,10.5,10.5,0,0,1,8.134,11.408l-5.1,40.761A7.985,7.985,0,0,0,224.576,496h63.866a7.985,7.985,0,0,0,7.927-8.973l-5.093-40.761a10.5,10.5,0,0,1,8.127-11.408,181.971,181.971,0,0,0,52.561-21.706A10.455,10.455,0,0,1,365.7,415.5l22.96,29.521a8,8,0,0,0,5.811,3.065,8.132,8.132,0,0,0,6.139-2.322L445.774,400.6a7.988,7.988,0,0,0-.743-11.951l-29.521-22.96a10.448,10.448,0,0,1-2.339-13.739,182.133,182.133,0,0,0,21.706-52.568,10.421,10.421,0,0,1,11.4-8.135l40.762,5.1a7.975,7.975,0,0,0,8.973-7.919V224.567A7.893,7.893,0,0,0,493.323,218.58Zm-161.4,120.249a111.293,111.293,0,0,1-14.944,11.5A111.818,111.818,0,1,1,331.919,338.829Z"/>
</svg>
